<?xml version="1.0" encoding="utf-8"?>
<!-- Generator: Adobe Illustrator 21.0.2, SVG Export Plug-In . SVG Version: 6.00 Build 0)  -->
<svg version="1.1" id="Layer_1" xmlns="http://www.w3.org/2000/svg" xmlns:xlink="http://www.w3.org/1999/xlink" x="0px" y="0px"
	 viewBox="0 0 64 53" style="enable-background:new 0 0 64 53;" xml:space="preserve">
<style type="text/css">
	.st0{fill:#48A136;}
</style>
<path class="st0" d="M7,39.6c2-0.5,5.3-2.8,5.3-7.9c0-4.5-1.5-6.5-2.2-7.6L10,24c0,0,0,0,0,0c-0.1-0.2-0.2-1,0.1-2.6
	c0.2-0.6,0.1-1.4-0.2-2c-0.6-1.3-1.7-3.7-0.9-5.6c1.3-3.1,1.8-3.4,3.2-4c0.1-0.1,0.3-0.1,0.4-0.2C13,9.4,14.5,8.8,16,8.8
	c0.7,0,1.3,0.1,1.8,0.4c0.1-0.5,0.3-1,0.5-1.5c0.2-0.4,0.4-0.8,0.5-1.2c-0.9-0.4-1.9-0.6-2.8-0.6c-2.1,0-4.1,0.7-4.9,1.2
	c-2.3,1-3.3,2-4.8,5.6c-1.3,3,0.2,6.3,1,8c-0.9,3.8,0.4,5.1,0.4,5.1c0.7,0.9,1.8,2.2,1.8,6c0,4.3-3.3,5-3.3,5
	C3.5,37.8,0,39.7,0,45.6c0,0,0,1.5,1.5,1.5l6.5,0C8.3,46,8.7,45,9.3,44.2l-6.3,0C3.5,41.4,5.2,40.3,7,39.6z M43.6,40.1
	c0,0-5.2-1.3-5.2-6.8c0-4.8,2.1-6.5,3-7.7c0,0,1.7-1.5,0.6-6.4c1.9-2.7,2.5-7,0.2-12.4C40.8,3.7,39.7,2,37.9,1c-1.3-0.7-2.7-1-4.1-1
	c-2.6,0-5.1,0.9-6.1,1.6c-2.9,1.3-4.9,2.5-6.7,7.2c-1.6,3.9,0.3,8.1,1.2,10.3c-1.1,4.9,0.4,6.5,0.4,6.5c0.8,1.2,3,2.9,3,7.7
	c0,5.5-5.2,6.8-5.2,6.8c-3.3,1.2-10.2,3.5-10.2,11.5c0,0,0,1.5,1.5,1.5h40.7c1.5,0,1.5-1.5,1.5-1.5C53.8,43.6,46.9,41.3,43.6,40.1z
	 M13.2,50.1c0.7-4.1,4.3-5.8,7.9-7.1l0.1,0c2.6-0.7,7.3-3.5,7.3-9.6c0-5.1-2.1-7.6-3.2-9c-0.2-0.3-0.5-0.6-0.4-0.5
	c-0.1-0.2-0.5-1.4,0.1-4c0.3-1.3-0.2-1.9-0.2-1.9c-0.8-1.8-2.3-5.2-1.2-7.9c1.5-3.8,2.8-4.5,5.2-5.6c0.1-0.1,0.3-0.1,0.4-0.2
	c0.5-0.3,2.4-1.1,4.5-1.1c1.1,0,2,0.2,2.7,0.6C37.4,4.1,38.2,5,39.4,8c2.3,5.4,0.9,8.4,0.1,9.5c-0.5,0.7-0.7,1.6-0.5,2.4
	c0.6,2.5,0.2,3.5,0.1,3.7c0,0-0.4,0.5-0.5,0.7c-1.1,1.3-3.2,3.9-3.2,9c0,6.1,4.7,8.9,7.3,9.6l0.1,0c3.7,1.3,7.3,3,7.9,7.1H13.2z
	 M57.8,36.8c0,0-3.3-0.7-3.3-5c0-3.8,1.1-5.1,1.8-6c0,0,1.3-1.3,0.4-5.1c0.7-1.7,2.3-4.9,1-8c-1.5-3.6-2.4-4.6-4.8-5.6
	c-0.8-0.5-2.8-1.2-4.9-1.2c-1,0-2,0.2-2.9,0.6c0.4,1,0.7,1.9,0.9,2.8c0,0,0.1-0.1,0.1-0.1C46.6,9,47.3,8.8,48,8.8
	c1.5,0,3,0.6,3.3,0.8c0.1,0.1,0.3,0.2,0.4,0.2c1.4,0.6,2,0.9,3.2,4c0.8,1.8-0.3,4.3-0.9,5.6c-0.3,0.6-0.4,1.3-0.2,2
	c0.4,1.7,0.2,2.4,0.1,2.6c0,0,0,0,0,0l-0.1,0.1c-0.8,1.1-2.2,3.1-2.2,7.6c0,5.1,3.4,7.3,5.3,7.9c1.9,0.7,3.6,1.7,4,4.5l-6.3,0
	c0.6,0.9,1,1.9,1.4,2.9l6.5,0c1.5,0,1.5-1.5,1.5-1.5C64,39.7,60.5,37.8,57.8,36.8z"/>
</svg>
