<?xml version="1.0" encoding="utf-8"?>
<!-- Generator: Adobe Illustrator 21.0.2, SVG Export Plug-In . SVG Version: 6.00 Build 0)  -->
<svg version="1.1" id="Layer_1" xmlns="http://www.w3.org/2000/svg" xmlns:xlink="http://www.w3.org/1999/xlink" x="0px" y="0px"
	 viewBox="0 0 56.1 56" style="enable-background:new 0 0 56.1 56;" xml:space="preserve">
<style type="text/css">
	.st0{fill:#48A136;}
</style>
<path class="st0" d="M16.1,45.2l14.8-9.4L40.2,21l-14.8,9.4L16.1,45.2z M27.2,32.2c0.5-0.5,1.3-0.5,1.8,0c0.5,0.5,0.5,1.3,0,1.8
	c-0.5,0.5-1.3,0.5-1.8,0C26.7,33.5,26.7,32.7,27.2,32.2z M37.6,29.4c0.4,1.1,0.7,2.4,0.7,3.7c0,5.6-4.6,10.2-10.2,10.2
	c-1.3,0-2.5-0.3-3.7-0.7l-2.6,1.6c1.9,1.1,4,1.7,6.3,1.7c7,0,12.7-5.7,12.7-12.7c0-2.3-0.6-4.4-1.7-6.3L37.6,29.4z M18.6,36.8
	c-0.4-1.1-0.7-2.4-0.7-3.7c0-5.6,4.6-10.2,10.2-10.2c1.3,0,2.5,0.3,3.7,0.7l2.6-1.6c-1.9-1.1-4-1.7-6.3-1.7c-7,0-12.7,5.7-12.7,12.7
	c0,2.3,0.6,4.4,1.7,6.3L18.6,36.8z M11.6,5.1c-0.7,0-1.3,0.6-1.3,1.3c0,0.7,0.6,1.3,1.3,1.3c0.7,0,1.3-0.6,1.3-1.3
	C12.9,5.7,12.3,5.1,11.6,5.1z M49.8,5.1h-28c-0.7,0-1.3,0.6-1.3,1.3c0,0.7,0.6,1.3,1.3,1.3h28c0.7,0,1.3-0.6,1.3-1.3
	C51,5.7,50.5,5.1,49.8,5.1z M51,0H5.2C2.4,0,0.1,2.3,0.1,5.1v45.8c0,2.8,2.3,5.1,5.1,5.1H51c2.8,0,5.1-2.3,5.1-5.1V5.1
	C56.1,2.3,53.8,0,51,0z M53.6,50.9c0,1.4-1.1,2.5-2.5,2.5H5.2c-1.4,0-2.5-1.1-2.5-2.5V12.7h50.9V50.9z M53.6,10.2H2.7V5.1
	c0-1.4,1.1-2.5,2.5-2.5H51c1.4,0,2.5,1.1,2.5,2.5V10.2z M16.7,5.1c-0.7,0-1.3,0.6-1.3,1.3c0,0.7,0.6,1.3,1.3,1.3
	c0.7,0,1.3-0.6,1.3-1.3C17.9,5.7,17.4,5.1,16.7,5.1z M6.5,5.1c-0.7,0-1.3,0.6-1.3,1.3c0,0.7,0.6,1.3,1.3,1.3s1.3-0.6,1.3-1.3
	C7.8,5.7,7.2,5.1,6.5,5.1z"/>
</svg>
