<?xml version="1.0" encoding="utf-8"?>
<!-- Generator: Adobe Illustrator 21.0.2, SVG Export Plug-In . SVG Version: 6.00 Build 0)  -->
<svg version="1.1" id="Layer_1" xmlns="http://www.w3.org/2000/svg" xmlns:xlink="http://www.w3.org/1999/xlink" x="0px" y="0px"
	 viewBox="0 0 56 56" style="enable-background:new 0 0 56 56;" xml:space="preserve">
<style type="text/css">
	.st0{fill:#48A136;}
</style>
<path class="st0" d="M10.2,40.7c1.4,0,2.5-1.1,2.5-2.5c0-1.4-1.1-2.5-2.5-2.5s-2.5,1.1-2.5,2.5C7.6,39.6,8.8,40.7,10.2,40.7z
	 M16.3,28.6l-1.4-2.1c-0.8,0.5-1.5,1.1-2.2,1.6l1.7,1.9C15,29.5,15.6,29,16.3,28.6z M31.8,20.4c1.4,0,2.5-1.1,2.5-2.5
	c0-1.4-1.1-2.5-2.5-2.5s-2.5,1.1-2.5,2.5C29.3,19.2,30.4,20.4,31.8,20.4z M13,31.6l-2.1-1.4c-0.6,0.8-1,1.7-1.3,2.6l2.4,0.7
	C12.3,32.8,12.6,32.2,13,31.6z M42.6,24l0.2,0.3l1.9-1.6l-0.2-0.3c-0.4-0.5-0.9-1-1.3-1.6l-2,1.5C41.7,22.9,42.1,23.5,42.6,24z
	 M45.2,28.1l2.4-0.8c-0.3-0.9-0.7-1.7-1.3-2.5l-2.1,1.4C44.7,26.8,45,27.4,45.2,28.1z M55.1,5.2L55.1,5.2L37.3,0l0,0
	C37.1,0,37,0,36.9,0s-0.2,0-0.3,0.1l0,0L19.1,5L1.6,0l0,0C1.5,0,1.4,0,1.3,0C0.6,0,0,0.6,0,1.3v48.4c0,0.6,0.4,1.1,0.9,1.2l0,0
	L18.7,56l0,0c0.1,0,0.2,0.1,0.3,0.1c0.1,0,0.2,0,0.3-0.1l0,0l17.5-5l17.5,5l0,0c0.1,0,0.2,0.1,0.3,0.1c0.7,0,1.3-0.6,1.3-1.3V6.4
	C56,5.8,55.6,5.3,55.1,5.2z M17.8,53L2.5,48.7V3l15.3,4.4V53z M35.6,48.7L20.4,53V24.2l1,2.2c0.9-0.4,1.6-0.9,2.4-1.6L22,23
	c-0.5,0.5-1.1,0.9-1.7,1.1V7.3L35.6,3V48.7z M53.5,53l-15.3-4.4V20c0.6,0.3,1.1,0.6,1.5,0.9l1.5-2.1c-0.7-0.5-1.5-0.9-2.4-1.3
	l-0.6,1.4V3l15.3,4.4V53z M45.5,32.4l2.5,0.4c0.1-1,0.2-1.9,0.1-2.7l-2.5,0.1C45.6,30.9,45.6,31.6,45.5,32.4z M27.1,21.6l-1.3-2.2
	c-0.9,0.5-1.6,1.2-2.2,1.9l1.9,1.7C26.1,22.4,26.6,21.9,27.1,21.6z M45.4,36c-0.2-0.2-0.5-0.4-0.9-0.4c-0.7,0-1.3,0.6-1.3,1.3
	c0,0.4,0.1,0.7,0.4,0.9l1.6,1.6l-1.6,1.6c-0.2,0.2-0.4,0.5-0.4,0.9c0,0.7,0.6,1.3,1.3,1.3c0.4,0,0.7-0.1,0.9-0.4l1.6-1.6l1.6,1.6
	c0.2,0.2,0.5,0.4,0.9,0.4c0.7,0,1.3-0.6,1.3-1.3c0-0.4-0.1-0.7-0.4-0.9l-1.6-1.6l1.6-1.6c0.2-0.2,0.4-0.5,0.4-0.9
	c0-0.7-0.6-1.3-1.3-1.3c-0.4,0-0.7,0.1-0.9,0.4l-1.6,1.6L45.4,36z"/>
</svg>
