<?xml version="1.0" encoding="utf-8"?>
<!-- Generator: Adobe Illustrator 21.0.2, SVG Export Plug-In . SVG Version: 6.00 Build 0)  -->
<svg version="1.1" id="Layer_1" xmlns="http://www.w3.org/2000/svg" xmlns:xlink="http://www.w3.org/1999/xlink" x="0px" y="0px"
	 viewBox="0 0 57 56" style="enable-background:new 0 0 57 56;" xml:space="preserve">
<style type="text/css">
	.st0{fill-rule:evenodd;clip-rule:evenodd;fill:#48A136;}
</style>
<path class="st0" d="M49.2,16.5V3.8c0-2.1-1.7-3.8-3.9-3.8c-2.1,0-3.9,1.7-3.9,3.8v1l-19.9,5.9l-19,2.1c-1.4,0-2.6,1.1-2.6,2.5v17.8
	c0,1.4,1.2,2.5,2.6,2.5l8.8,1L15.6,55l0,0c0.1,0.6,0.6,1,1.2,1h10.4c0.7,0,1.3-0.6,1.3-1.3c0-0.1,0-0.2-0.1-0.3l0,0l-3.6-15.8
	l16.6,4.9v1c0,2.1,1.7,3.8,3.9,3.8c2.1,0,3.9-1.7,3.9-3.8V31.8c4.3,0,7.8-3.4,7.8-7.6S53.5,16.5,49.2,16.5z M2.6,33.1V28h6.5
	c0.7,0,1.3-0.6,1.3-1.3c0-0.7-0.6-1.3-1.3-1.3H2.6v-2.5h3.9c0.7,0,1.3-0.6,1.3-1.3c0-0.7-0.6-1.3-1.3-1.3H2.6v-5.1l18.1-2v21.8
	L2.6,33.1z M16.7,48.4l-2.6-11.5l7.4,0.8l0.5,0.1l2.4,10.5H16.7z M25,50.9l0.6,2.5h-7.7l-0.6-2.5H25z M41.5,40.9l-18.1-5.3V12.8
	l18.1-5.3V40.9z M46.6,44.5c0,0.7-0.6,1.3-1.3,1.3c-0.7,0-1.3-0.6-1.3-1.3V3.8c0-0.7,0.6-1.3,1.3-1.3c0.7,0,1.3,0.6,1.3,1.3V44.5z
	 M49.2,29.3V19.1c2.9,0,5.2,2.3,5.2,5.1C54.4,27,52.1,29.3,49.2,29.3z"/>
</svg>
